HIERARCHY
ROOT Hips
{
	OFFSET 0.00000 0.00000 0.00000
	CHANNELS 6 Xposition Yposition Zposition Zrotation Yrotation Xrotation 
	JOINT LHipJoint
	{
		OFFSET 0 0 0
		CHANNELS 3 Zrotation Yrotation Xrotation
		JOINT LeftUpLeg
		{
			OFFSET 1.61328 -1.70571 0.84375
			CHANNELS 3 Zrotation Yrotation Xrotation
			JOINT LeftLeg
			{
				OFFSET 2.32400 -6.38513 0.00000
				CHANNELS 3 Zrotation Yrotation Xrotation
				JOINT LeftFoot
				{
					OFFSET 2.58843 -7.11166 0.00000
					CHANNELS 3 Zrotation Yrotation Xrotation
					JOINT LeftToeBase
					{
						OFFSET 0.17200 -0.47257 2.47970
						CHANNELS 3 Zrotation Yrotation Xrotation
						End Site
						{
							OFFSET 0.00000 -0.00000 1.26912
						}
					}
				}
			}
		}
	}
	JOINT RHipJoint
	{
		OFFSET 0 0 0
		CHANNELS 3 Zrotation Yrotation Xrotation
		JOINT RightUpLeg
		{
			OFFSET -1.49930 -1.70570 0.84375
			CHANNELS 3 Zrotation Yrotation Xrotation
			JOINT RightLeg
			{
				OFFSET -2.30458 -6.33178 0.00000
				CHANNELS 3 Zrotation Yrotation Xrotation
				JOINT RightFoot
				{
					OFFSET -2.62261 -7.20556 0.00000
					CHANNELS 3 Zrotation Yrotation Xrotation
					JOINT RightToeBase
					{
						OFFSET -0.18709 -0.51403 2.51340
						CHANNELS 3 Zrotation Yrotation Xrotation
						End Site
						{
							OFFSET -0.00000 -0.00000 1.28858
						}
					}
				}
			}
		}
	}
	JOINT LowerBack
	{
		OFFSET 0 0 0
		CHANNELS 3 Zrotation Yrotation Xrotation
		JOINT Spine
		{
			OFFSET -0.03798 2.19274 -0.19881
			CHANNELS 3 Zrotation Yrotation Xrotation
			JOINT Spine1
			{
				OFFSET -0.00024 2.19460 0.05248
				CHANNELS 3 Zrotation Yrotation Xrotation
				JOINT Neck
				{
					OFFSET 0 0 0
					CHANNELS 3 Zrotation Yrotation Xrotation
					JOINT Neck1
					{
						OFFSET -0.00746 1.82323 0.17286
						CHANNELS 3 Zrotation Yrotation Xrotation
						JOINT Head
						{
							OFFSET 0.11826 1.82121 -0.27841
							CHANNELS 3 Zrotation Yrotation Xrotation
							End Site
							{
								OFFSET 0.03496 1.85543 -0.11495
							}
						}
					}
				}
				JOINT LeftShoulder
				{
					OFFSET 0 0 0
					CHANNELS 3 Zrotation Yrotation Xrotation
					JOINT LeftArm
					{
						OFFSET 3.71926 0.78840 0.25473
						CHANNELS 3 Zrotation Yrotation Xrotation
						JOINT LeftForeArm
						{
							OFFSET 5.37587 -0.00000 0.00000
							CHANNELS 3 Zrotation Yrotation Xrotation
							JOINT LeftHand
							{
								OFFSET 3.35977 -0.00000 0.00000
								CHANNELS 3 Zrotation Yrotation Xrotation
								JOINT LeftFingerBase
								{
									OFFSET 0 0 0
									CHANNELS 3 Zrotation Yrotation Xrotation
									JOINT LeftHandIndex1
									{
										OFFSET 0.56186 -0.00000 0.00000
										CHANNELS 3 Zrotation Yrotation Xrotation
										End Site
										{
											OFFSET 0.45299 -0.00000 0.00000
										}
									}
								}
								JOINT LThumb
								{
									OFFSET 0 0 0
									CHANNELS 3 Zrotation Yrotation Xrotation
									End Site
									{
										OFFSET 0.45990 -0.00000 0.45990
									}
								}
							}
						}
					}
				}
				JOINT RightShoulder
				{
					OFFSET 0 0 0
					CHANNELS 3 Zrotation Yrotation Xrotation
					JOINT RightArm
					{
						OFFSET -3.65136 0.56074 0.01624
						CHANNELS 3 Zrotation Yrotation Xrotation
						JOINT RightForeArm
						{
							OFFSET -5.22819 -0.00000 0.00000
							CHANNELS 3 Zrotation Yrotation Xrotation
							JOINT RightHand
							{
								OFFSET -3.40764 -0.00000 0.00000
								CHANNELS 3 Zrotation Yrotation Xrotation
								JOINT RightFingerBase
								{
									OFFSET 0 0 0
									CHANNELS 3 Zrotation Yrotation Xrotation
									JOINT RightHandIndex1
									{
										OFFSET -0.58325 -0.00000 0.00000
										CHANNELS 3 Zrotation Yrotation Xrotation
										End Site
										{
											OFFSET -0.47024 -0.00000 0.00000
										}
									}
								}
								JOINT RThumb
								{
									OFFSET 0 0 0
									CHANNELS 3 Zrotation Yrotation Xrotation
									End Site
									{
										OFFSET -0.47742 -0.00000 0.47742
									}
								}
							}
						}
					}
				}
			}
		}
	}
}
MOTION
Frames: 10
Frame Time: 0.0769231
0.00 0.00 0.00 0 0 0 0 0 0 -21 0 0 0 0 0 0 0 0 0 0 0 0 0 0 21 0 0 0 0 0 0 0 0 0 0 0 0 0 0 0 0 0 0 0 0 0 0 -16 0 0 21 0 0 11 0 0 0 -8 0 0 0 0 0 0 0 0 0 0 0 0 0 0 0 0 0 0 0 0 8 0 0 0 0 0 0 0 0 0 0 0 0 0 0 0 0 0
0.00 0.00 0.00 -186.6870 -83.3488 187.8140 0.0000 0.0000 0.0000 -23.7619 10.4117 -7.6274 1.3003 7.2241 20.3810 0.9707 -1.7953 -18.1038 0.0012 -0.2200 -0.6046 0.0000 0.0000 0.0000 13.4868 9.6899 -16.2743 -6.2116 -14.6303 45.8251 -1.4987 1.1725 -22.8060 -0.0985 -2.0238 5.5716 -3.9867 1.1950 -1.6396 -1.5420 1.7572 3.7978 0.7339 0.7259 4.7759 -2.2832 -1.4152 -10.3290 9.1285 -1.9759 -1.8931 3.2921 -0.8710 1.3371 -0.0000 -0.0000 0.0000 -88.7460 -2.4951 12.4689 10.4204 -17.3944 -1.5983 -0.0000 0.0000 -1.3886 17.3394 15.9083 4.8914 -7.1250 0.0000 -0.0000 -9.8068 46.3676 -0.3342 -0.0000 -0.0000 0.0000 89.6425 1.6249 24.1018 -16.3324 25.9692 -3.7903 0.0000 -0.0000 -3.7517 -22.8209 3.2401 -1.3624 7.1250 -0.0000 -0.0000 2.8848 -26.4631 1.2986
0.00 0.00 0.00 -174.1860 -84.2364 175.8080 0.0000 0.0000 0.0000 -24.8097 11.5266 6.7327 0.0471 1.4005 3.8515 0.6162 2.2654 -15.8204 0.0081 -0.5803 -1.5947 0.0000 0.0000 0.0000 17.5300 13.9288 -33.7684 -5.6122 -14.0417 43.4046 -1.0321 -5.4899 -21.9203 -0.4033 -4.0771 11.2937 -4.1930 -0.2727 -0.0584 -0.4730 -0.3158 3.6304 1.8482 -0.3077 3.7963 -2.4763 -1.1987 -9.5775 9.1299 -1.4675 -6.9833 3.3508 -0.8203 -0.4747 0.0000 0.0000 0.0000 -89.8734 -6.4152 35.8495 18.1368 -28.3320 -4.6140 -0.0000 0.0000 -9.4868 19.0137 14.5802 4.9578 -7.1250 0.0000 -0.0000 -7.9342 45.2129 -0.0420 0.0000 0.0000 0.0000 91.7062 -5.4729 12.6202 -11.9945 19.7964 -2.1004 0.0000 0.0000 2.0514 -22.4666 4.3135 -1.7815 7.1250 -0.0000 -0.0000 3.1458 -25.3128 1.5009
0.00 0.00 0.00 -277.7100 -87.9581 281.1950 0.0000 0.0000 0.0000 -21.7545 14.9049 17.7184 0.0000 -0.0000 -0.0000 -0.0019 -0.7972 0.0656 0.9065 -6.0673 -16.9798 0.0000 0.0000 0.0000 15.1415 18.7410 -25.8402 -2.8159 -10.3910 30.2523 -0.4023 -2.4941 -13.1559 -0.5726 -4.8462 13.4704 -3.6469 -1.1000 -3.0529 0.4716 -1.3182 2.5524 2.4412 -0.7829 4.4468 -2.6058 -1.8569 -8.6300 8.5882 -2.2747 -7.8899 3.1810 -1.2507 -0.8832 0.0000 -0.0000 0.0000 -92.0345 -2.9812 16.2467 9.1181 -15.3485 -1.2312 -0.0000 -0.0000 1.8418 17.3251 15.4659 4.7552 -7.1250 0.0000 -0.0000 -9.7025 45.9141 -0.2210 0.0000 -0.0000 0.0000 90.0049 -5.1161 14.0081 -12.8252 21.0306 -2.3902 0.0000 0.0000 0.0599 -22.2602 3.3882 -1.3858 7.1250 -0.0000 -0.0000 3.3098 -26.3170 1.5018
0.00 0.00 0.00 -348.1330 -85.1795 350.6710 0.0000 0.0000 0.0000 -17.6236 11.5925 14.3582 0.7365 5.4827 15.2907 0.1465 5.9790 7.4593 0.3170 -3.6191 -10.0076 0.0000 0.0000 0.0000 19.7427 12.1874 -18.8973 -2.7335 -10.2505 29.7919 -0.5856 -0.8118 -14.7724 -1.1272 -6.7436 18.9578 -2.7012 -1.3869 -5.6523 1.2381 -1.7094 1.2121 2.6370 -0.9385 4.5463 -3.5124 -3.1215 -8.2608 9.0853 -4.0490 -2.6293 3.4253 -1.9440 0.8941 0.0000 -0.0000 0.0000 -90.1909 2.1240 16.0992 9.7866 -16.4051 -1.4141 -0.0000 0.0000 -0.5805 17.3381 15.3526 4.7251 -7.1250 0.0000 -0.0000 -9.6611 45.8001 -0.1926 0.0000 -0.0000 0.0000 89.1651 -5.6327 16.7972 -14.1337 22.9256 -2.8800 0.0000 -0.0000 -2.7936 -22.3666 2.6177 -1.0766 7.1250 -0.0000 -0.0000 3.2400 -27.1458 1.4069
0.00 0.00 0.00 -364.5140 -82.6497 365.8360 0.0000 0.0000 0.0000 -14.0814 9.3012 5.7937 3.4998 11.4632 33.8584 0.4513 8.3581 12.4835 0.0291 -1.1013 -3.0275 0.0000 0.0000 0.0000 23.0504 8.0187 -14.9509 -2.5126 -9.8607 28.5269 -0.7000 -0.1922 -15.8827 -1.1623 -6.8442 19.2545 -1.1422 -1.1523 -5.3787 1.6929 -1.5362 1.2322 2.2531 -0.8184 4.3695 -4.1223 -3.9908 -7.8723 9.8598 -5.1865 -2.3504 3.7676 -2.4972 1.0446 -0.0000 0.0000 0.0000 -89.6886 2.3353 17.7465 11.0529 -18.3692 -1.7925 -0.0000 0.0000 -2.6481 17.5042 15.3523 4.7730 -7.1250 0.0000 -0.0000 -9.5083 45.8205 -0.1943 -0.0000 0.0000 0.0000 88.4972 -4.0430 18.7751 -13.6224 22.1923 -2.6838 0.0000 -0.0000 -2.0888 -22.1650 2.1881 -0.8911 7.1250 -0.0000 -0.0000 3.4030 -27.6125 1.4405
0.00 0.00 0.00 -376.8280 -79.8928 377.0130 0.0000 0.0000 0.0000 -10.8434 3.7425 -4.2423 8.0225 16.1357 52.6435 0.5451 12.8786 14.9080 0.0080 0.5775 1.5869 0.0000 0.0000 0.0000 26.8134 3.9510 -11.1659 -2.1689 -9.2095 26.4527 -0.8118 0.7289 -16.7961 -1.1011 -6.6677 18.7344 1.3473 -0.7561 -4.6731 2.1762 -1.2108 1.7794 1.3909 -0.6046 4.4817 -4.7330 -4.7242 -7.4922 11.4398 -6.0876 -3.5480 4.4236 -2.9761 0.7474 -0.0000 0.0000 0.0000 -90.2681 1.3543 17.5892 13.6288 -22.2016 -2.6863 -0.0000 0.0000 -5.8836 18.2034 15.3803 4.9847 -7.1250 0.0000 -0.0000 -8.8715 45.9378 -0.2070 -0.0000 0.0000 0.0000 87.6773 0.6436 19.9720 -11.4528 18.9790 -1.9206 0.0000 0.0000 2.6501 -21.9051 2.2591 -0.9081 7.1250 -0.0000 -0.0000 3.6014 -27.5399 1.5309
0.00 0.00 0.00 -379.5490 -79.3872 378.1420 0.0000 0.0000 0.0000 -10.9494 -2.7988 -15.7008 11.4309 18.1396 64.1733 -0.1574 7.4421 -0.0708 0.2199 -3.0189 -8.3312 0.0000 0.0000 0.0000 28.8462 0.9983 -6.6918 -2.0450 -8.9593 25.6680 -0.9651 1.9409 -18.0147 -1.0794 -6.6038 18.5469 2.4287 0.1881 -2.3796 1.8672 0.0303 3.0069 0.5675 0.0457 4.4392 -5.2981 -5.2689 -7.2550 13.8159 -6.7104 -4.7779 4.8174 -3.3266 0.4719 0.0000 0.0000 0.0000 -92.3544 -0.0875 15.6294 18.0950 -28.2786 -4.5942 -0.0000 0.0000 -10.5158 18.2822 15.0060 4.8892 -7.1250 0.0000 -0.0000 -8.7063 45.5625 -0.1218 0.0000 0.0000 0.0000 87.4416 9.2762 18.3895 -8.8078 14.8536 -1.1504 0.0000 0.0000 10.8735 -22.5161 3.4666 -1.4359 7.1250 -0.0000 -0.0000 3.1146 -26.2258 1.4196
0.00 0.00 0.00 -386.6210 -82.0433 385.9530 0.0000 0.0000 0.0000 -14.3623 -8.2020 -26.9336 6.7684 15.1337 47.9927 0.2554 8.0587 -15.6720 0.2711 -3.3492 -9.2526 0.0000 0.0000 0.0000 30.1392 0.3638 -2.8616 -2.0173 -8.9020 25.4892 -1.1631 3.9699 -19.4543 -1.0003 -6.3646 17.8461 4.2948 1.0156 -0.6650 0.9992 1.1458 3.6557 -1.3238 0.6763 4.2147 -5.0766 -4.7282 -7.4022 12.7194 -6.1741 -2.2412 4.4311 -2.9643 1.1336 -0.0000 0.0000 0.0000 -92.1528 -0.8273 18.2129 17.9623 -28.1089 -4.5315 -0.0000 0.0000 -9.5645 18.1502 14.8744 4.8102 -7.1250 0.0000 -0.0000 -8.7955 45.4106 -0.0898 -0.0000 0.0000 0.0000 88.0056 14.3903 34.6065 -15.8217 25.2782 -3.5695 0.0000 -0.0000 -3.6410 -22.2057 2.7477 -1.1211 7.1250 -0.0000 -0.0000 3.3609 -27.0086 1.4704
0.00 0.00 0.00 -443.7250 -87.1670 447.5870 0.0000 0.0000 0.0000 -21.7286 2.5168 -22.2960 1.0701 6.5761 18.4655 0.0170 -2.5080 -2.7196 0.0039 0.4017 1.1038 0.0000 0.0000 0.0000 25.2183 -2.3438 5.9510 -2.7231 -10.2327 29.7338 -0.0004 1.1586 -0.8673 -1.3743 -7.4187 20.9619 2.0285 1.1270 -4.9259 -0.4925 1.3860 1.8895 -1.5231 0.7559 4.7807 -3.9717 -3.4125 -8.6188 9.1299 -4.4935 -0.5890 3.5051 -2.1016 1.6721 0.0000 -0.0000 0.0000 -91.0100 2.4341 6.6861 9.4354 -15.8516 -1.3165 -0.0000 -0.0000 0.5301 17.0721 15.1919 4.6012 -7.1250 0.0000 -0.0000 -9.8634 45.6027 -0.1482 0.0000 -0.0000 0.0000 90.3639 -2.3802 9.9741 -6.3606 10.8623 -0.6054 0.0000 0.0000 22.1480 -21.6496 4.9592 -1.9652 7.1250 -0.0000 -0.0000 3.7553 -24.6467 1.8509
